<svg width="1440" height="867" viewBox="0 0 1440 867" fill="none" xmlns="http://www.w3.org/2000/svg">
<mask id="mask0_1_788" style="mask-type:alpha" maskUnits="userSpaceOnUse" x="0" y="0" width="1440" height="867">
<rect width="1440" height="867" fill="black"/>
</mask>
<g mask="url(#mask0_1_788)">
<path d="M25.4897 1018.08C158.653 997.308 291.951 788.992 387.567 756.677C495.275 720.277 630.432 814.687 742.036 735.909C853.639 657.131 840.323 506.737 917.685 488.833M387.567 756.677C291.951 788.992 158.653 997.308 25.4897 1018.08" stroke="#D98044" stroke-opacity="0.5" stroke-width="2"/>
<path d="M17.8804 1003.75C151.044 982.985 284.342 774.668 379.958 742.354C487.666 705.954 622.823 800.363 734.426 721.586C846.03 642.808 832.714 492.414 910.075 474.51M379.958 742.354C284.342 774.668 151.044 982.985 17.8804 1003.75" stroke="#D98044" stroke-opacity="0.5" stroke-width="2"/>
<path d="M11.5393 990.862C144.703 970.094 278 761.777 373.617 729.463C481.325 693.063 616.482 787.472 728.085 708.695C839.689 629.917 826.373 479.523 903.734 461.619M373.617 729.463C278 761.777 144.703 970.094 11.5393 990.862" stroke="#D98044" stroke-opacity="0.5" stroke-width="2"/>
<path d="M5.19818 977.971C138.362 957.203 271.659 748.886 367.276 716.572C474.984 680.172 610.141 774.582 721.744 695.804C833.348 617.026 820.031 466.632 897.393 448.728M367.276 716.572C271.659 748.886 138.362 957.203 5.19818 977.971" stroke="#D98044" stroke-opacity="0.5" stroke-width="2"/>
<path d="M-2.41125 965.081C130.752 944.312 264.05 735.996 359.666 703.682C467.374 667.281 602.531 761.691 714.135 682.913C825.738 604.135 812.422 453.741 889.784 435.837M359.666 703.682C264.05 735.996 130.752 944.312 -2.41125 965.081" stroke="#D98044" stroke-opacity="0.5" stroke-width="2"/>
<path d="M-10.0208 950.757C123.143 929.989 256.44 721.672 352.057 689.358C459.765 652.958 594.922 747.367 706.525 668.59C818.129 589.812 804.813 439.418 882.174 421.514M352.057 689.358C256.44 721.672 123.143 929.989 -10.0208 950.757" stroke="#D98044" stroke-opacity="0.5" stroke-width="2"/>
<path d="M-16.3617 937.866C116.802 917.098 250.099 708.781 345.716 676.467C453.424 640.067 588.581 734.477 700.184 655.699C811.788 576.921 798.472 426.527 875.833 408.623M345.716 676.467C250.099 708.781 116.802 917.098 -16.3617 937.866" stroke="#D98044" stroke-opacity="0.5" stroke-width="2"/>
<path d="M-22.7028 924.976C110.461 904.207 243.758 695.891 339.375 663.577C447.083 627.176 582.24 721.586 693.843 642.808C805.447 564.03 792.13 413.636 869.492 395.732M339.375 663.577C243.758 695.891 110.461 904.207 -22.7028 924.976" stroke="#D98044" stroke-opacity="0.5" stroke-width="2"/>
<path d="M81.2916 1122.64C214.455 1101.87 347.753 893.551 443.369 861.237C551.077 824.837 686.234 919.246 797.838 840.468C909.441 761.691 896.125 611.297 973.487 593.393M443.369 861.237C347.753 893.551 214.455 1101.87 81.2916 1122.64" stroke="#D98044" stroke-opacity="0.5" stroke-width="2"/>
<path d="M73.6821 1108.31C206.846 1087.54 340.143 879.228 435.76 846.914C543.468 810.513 678.625 904.923 790.228 826.145C901.832 747.367 888.515 596.973 965.877 579.069M435.76 846.914C340.143 879.228 206.846 1087.54 73.6821 1108.31" stroke="#D98044" stroke-opacity="0.5" stroke-width="2"/>
<path d="M67.3409 1095.42C200.504 1074.65 333.802 866.337 429.419 834.023C537.127 797.623 672.283 892.032 783.887 813.254C895.491 734.476 882.174 584.083 959.536 566.179M429.419 834.023C333.802 866.337 200.504 1074.65 67.3409 1095.42" stroke="#D98044" stroke-opacity="0.5" stroke-width="2"/>
<path d="M60.9999 1082.53C194.163 1061.76 327.461 853.446 423.078 821.132C530.786 784.732 665.942 879.141 777.546 800.363C889.15 721.586 875.833 571.192 953.195 553.288M423.078 821.132C327.461 853.446 194.163 1061.76 60.9999 1082.53" stroke="#D98044" stroke-opacity="0.5" stroke-width="2"/>
<path d="M53.3906 1069.64C186.554 1048.87 319.852 840.555 415.468 808.241C523.176 771.841 658.333 866.25 769.937 787.472C881.54 708.695 868.224 558.301 945.585 540.397M415.468 808.241C319.852 840.555 186.554 1048.87 53.3906 1069.64" stroke="#D98044" stroke-opacity="0.5" stroke-width="2"/>
<path d="M45.7812 1055.32C178.945 1034.55 312.242 826.232 407.859 793.918C515.567 757.518 650.724 851.927 762.327 773.149C873.931 694.371 860.615 543.978 937.976 526.074M407.859 793.918C312.242 826.232 178.945 1034.55 45.7812 1055.32" stroke="#D98044" stroke-opacity="0.5" stroke-width="2"/>
<path d="M39.4401 1042.43C172.604 1021.66 305.901 813.341 401.518 781.027C509.226 744.627 644.383 839.036 755.986 760.258C867.59 681.481 854.273 531.087 931.635 513.183M401.518 781.027C305.901 813.341 172.604 1021.66 39.4401 1042.43" stroke="#D98044" stroke-opacity="0.5" stroke-width="2"/>
<path d="M33.0991 1029.54C166.262 1008.77 299.56 800.45 395.177 768.136C502.885 731.736 638.041 826.145 749.645 747.367C861.249 668.59 847.932 518.196 925.294 500.292M395.177 768.136C299.56 800.45 166.262 1008.77 33.0991 1029.54" stroke="#D98044" stroke-opacity="0.5" stroke-width="2"/>
<path d="M-29.0439 913.517C104.12 892.748 237.417 684.432 333.034 652.118C440.742 615.718 575.899 710.127 687.502 631.349C799.106 552.572 785.789 402.178 863.151 384.274M333.034 652.118C237.417 684.432 104.12 892.748 -29.0439 913.517" stroke="#D98044" stroke-opacity="0.5" stroke-width="2"/>
<path d="M-36.6532 899.194C96.5102 878.425 229.808 670.109 325.424 637.795C433.132 601.394 568.289 695.804 679.893 617.026C791.496 538.248 778.18 387.854 855.542 369.95M325.424 637.795C229.808 670.109 96.5102 878.425 -36.6532 899.194" stroke="#D98044" stroke-opacity="0.5" stroke-width="2"/>
<path d="M-42.9943 886.303C90.1691 865.534 223.467 657.218 319.083 624.904C426.791 588.503 561.948 682.913 673.552 604.135C785.155 525.357 771.839 374.963 849.201 357.059M319.083 624.904C223.467 657.218 90.1691 865.534 -42.9943 886.303" stroke="#D98044" stroke-opacity="0.5" stroke-width="2"/>
<path d="M-49.3354 873.412C83.828 852.643 217.126 644.327 312.742 612.013C420.45 575.613 555.607 670.022 667.211 591.244C778.814 512.466 765.498 362.073 842.859 344.169M312.742 612.013C217.126 644.327 83.828 852.643 -49.3354 873.412" stroke="#D98044" stroke-opacity="0.5" stroke-width="2"/>
<path d="M-56.9447 860.521C76.2187 839.752 209.516 631.436 305.133 599.122C412.841 562.722 547.998 657.131 659.601 578.353C771.205 499.576 757.889 349.182 835.25 331.278M305.133 599.122C209.516 631.436 76.2187 839.752 -56.9447 860.521" stroke="#D98044" stroke-opacity="0.5" stroke-width="2"/>
<path d="M-64.5541 846.198C68.6093 825.429 201.907 617.113 297.524 584.799C405.231 548.398 540.388 642.808 651.992 564.03C763.596 485.252 750.279 334.858 827.641 316.954M297.524 584.799C201.907 617.113 68.6093 825.429 -64.5541 846.198" stroke="#D98044" stroke-opacity="0.5" stroke-width="2"/>
<path d="M-70.8953 833.307C62.2681 812.538 195.566 604.222 291.182 571.908C398.89 535.507 534.047 629.917 645.651 551.139C757.254 472.361 743.938 321.967 821.3 304.063M291.182 571.908C195.566 604.222 62.2681 812.538 -70.8953 833.307" stroke="#D98044" stroke-opacity="0.5" stroke-width="2"/>
<path d="M-77.2363 820.416C55.9271 799.647 189.225 591.331 284.841 559.017C392.549 522.617 527.706 617.026 639.31 538.248C750.913 459.47 737.597 309.077 814.959 291.173M284.841 559.017C189.225 591.331 55.9271 799.647 -77.2363 820.416" stroke="#D98044" stroke-opacity="0.5" stroke-width="2"/>
<path d="M135.825 1225.76C268.988 1204.99 402.286 996.678 497.903 964.364C605.611 927.964 740.767 1022.37 852.371 943.596C963.975 864.818 950.658 714.424 1028.02 696.52M497.903 964.364C402.286 996.678 268.988 1204.99 135.825 1225.76" stroke="#D98044" stroke-opacity="0.5" stroke-width="2"/>
<path d="M128.216 1211.44C261.379 1190.67 394.677 982.355 490.293 950.041C598.001 913.641 733.158 1008.05 844.762 929.272C956.365 850.495 943.049 700.101 1020.41 682.197M490.293 950.041C394.677 982.355 261.379 1190.67 128.216 1211.44" stroke="#D98044" stroke-opacity="0.5" stroke-width="2"/>
<path d="M121.875 1198.55C255.038 1177.78 388.336 969.464 483.952 937.15C591.66 900.75 726.817 995.159 838.421 916.382C950.024 837.604 936.708 687.21 1014.07 669.306M483.952 937.15C388.336 969.464 255.038 1177.78 121.875 1198.55" stroke="#D98044" stroke-opacity="0.5" stroke-width="2"/>
<path d="M115.534 1185.66C248.697 1164.89 381.995 956.573 477.611 924.259C585.319 887.859 720.476 982.268 832.08 903.491C943.683 824.713 930.367 674.319 1007.73 656.415M477.611 924.259C381.995 956.573 248.697 1164.89 115.534 1185.66" stroke="#D98044" stroke-opacity="0.5" stroke-width="2"/>
<path d="M107.924 1172.77C241.088 1152 374.385 943.682 470.002 911.368C577.71 874.968 712.867 969.378 824.47 890.6C936.074 811.822 922.758 661.428 1000.12 643.524M470.002 911.368C374.385 943.682 241.088 1152 107.924 1172.77" stroke="#D98044" stroke-opacity="0.5" stroke-width="2"/>
<path d="M100.315 1158.44C233.478 1137.68 366.776 929.359 462.392 897.045C570.1 860.645 705.257 955.054 816.861 876.276C928.464 797.499 915.148 647.105 992.51 629.201M462.392 897.045C366.776 929.359 233.478 1137.68 100.315 1158.44" stroke="#D98044" stroke-opacity="0.5" stroke-width="2"/>
<path d="M93.9736 1145.55C227.137 1124.78 360.435 916.468 456.051 884.154C563.759 847.754 698.916 942.163 810.52 863.386C922.123 784.608 908.807 634.214 986.169 616.31M456.051 884.154C360.435 916.468 227.137 1124.78 93.9736 1145.55" stroke="#D98044" stroke-opacity="0.5" stroke-width="2"/>
<path d="M87.6327 1132.66C220.796 1111.89 354.094 903.577 449.71 871.263C557.418 834.863 692.575 929.272 804.179 850.495C915.782 771.717 902.466 621.323 979.828 603.419M449.71 871.263C354.094 903.577 220.796 1111.89 87.6327 1132.66" stroke="#D98044" stroke-opacity="0.5" stroke-width="2"/>
<path d="M917.249 488.7C1050.41 467.931 1183.71 259.615 1279.33 227.301C1387.03 190.9 1522.19 285.31 1633.8 206.532C1745.4 127.754 1732.08 -22.6397 1809.44 -40.5438M1279.33 227.301C1183.71 259.615 1050.41 467.931 917.249 488.7" stroke="#D98044" stroke-opacity="0.5" stroke-width="2"/>
<path d="M909.64 474.376C1042.8 453.608 1176.1 245.291 1271.72 212.977C1379.43 176.577 1514.58 270.986 1626.19 192.209C1737.79 113.431 1724.47 -36.963 1801.83 -54.867M1271.72 212.977C1176.1 245.291 1042.8 453.608 909.64 474.376" stroke="#D98044" stroke-opacity="0.5" stroke-width="2"/>
<path d="M903.299 461.486C1036.46 440.717 1169.76 232.401 1265.38 200.087C1373.08 163.686 1508.24 258.096 1619.84 179.318C1731.45 100.54 1718.13 -49.8538 1795.49 -67.7579M1265.38 200.087C1169.76 232.401 1036.46 440.717 903.299 461.486" stroke="#D98044" stroke-opacity="0.5" stroke-width="2"/>
<path d="M896.958 448.595C1030.12 427.826 1163.42 219.51 1259.04 187.196C1366.74 150.795 1501.9 245.205 1613.5 166.427C1725.11 87.6492 1711.79 -62.7447 1789.15 -80.6488M1259.04 187.196C1163.42 219.51 1030.12 427.826 896.958 448.595" stroke="#D98044" stroke-opacity="0.5" stroke-width="2"/>
<path d="M889.348 435.704C1022.51 414.935 1155.81 206.619 1251.43 174.305C1359.13 137.904 1494.29 232.314 1605.89 153.536C1717.5 74.7582 1704.18 -75.6357 1781.54 -93.5397M1251.43 174.305C1155.81 206.619 1022.51 414.935 889.348 435.704" stroke="#D98044" stroke-opacity="0.5" stroke-width="2"/>
<path d="M881.739 421.381C1014.9 400.612 1148.2 192.296 1243.82 159.981C1351.52 123.581 1486.68 217.991 1598.29 139.213C1709.89 60.435 1696.57 -89.9589 1773.93 -107.863M1243.82 159.981C1148.2 192.296 1014.9 400.612 881.739 421.381" stroke="#D98044" stroke-opacity="0.5" stroke-width="2"/>
<path d="M875.398 408.49C1008.56 387.721 1141.86 179.405 1237.48 147.091C1345.18 110.69 1480.34 205.1 1591.94 126.322C1703.55 47.5441 1690.23 -102.85 1767.59 -120.754M1237.48 147.091C1141.86 179.405 1008.56 387.721 875.398 408.49" stroke="#D98044" stroke-opacity="0.5" stroke-width="2"/>
<path d="M869.057 395.599C1002.22 374.83 1135.52 166.514 1231.13 134.2C1338.84 97.7993 1474 192.209 1585.6 113.431C1697.21 34.6532 1683.89 -115.741 1761.25 -133.645M1231.13 134.2C1135.52 166.514 1002.22 374.83 869.057 395.599" stroke="#D98044" stroke-opacity="0.5" stroke-width="2"/>
<path d="M973.051 593.259C1106.21 572.491 1239.51 364.174 1335.13 331.86C1442.84 295.46 1577.99 389.869 1689.6 311.092C1801.2 232.314 1787.88 81.9199 1865.25 64.0158M1335.13 331.86C1239.51 364.174 1106.21 572.491 973.051 593.259" stroke="#D98044" stroke-opacity="0.5" stroke-width="2"/>
<path d="M965.442 578.936C1098.61 558.167 1231.9 349.851 1327.52 317.537C1435.23 281.137 1570.38 375.546 1681.99 296.768C1793.59 217.991 1780.28 67.5966 1857.64 49.6926M1327.52 317.537C1231.9 349.851 1098.61 558.167 965.442 578.936" stroke="#D98044" stroke-opacity="0.5" stroke-width="2"/>
<path d="M959.101 566.045C1092.26 545.276 1225.56 336.96 1321.18 304.646C1428.89 268.246 1564.04 362.655 1675.65 283.877C1787.25 205.1 1773.93 54.7057 1851.3 36.8017M1321.18 304.646C1225.56 336.96 1092.26 545.276 959.101 566.045" stroke="#D98044" stroke-opacity="0.5" stroke-width="2"/>
<path d="M952.76 553.154C1085.92 532.386 1219.22 324.069 1314.84 291.755C1422.55 255.355 1557.7 349.764 1669.31 270.987C1780.91 192.209 1767.59 41.8148 1844.95 23.9108M1314.84 291.755C1219.22 324.069 1085.92 532.386 952.76 553.154" stroke="#D98044" stroke-opacity="0.5" stroke-width="2"/>
<path d="M945.15 540.263C1078.31 519.495 1211.61 311.178 1307.23 278.864C1414.94 242.464 1550.09 336.873 1661.7 258.096C1773.3 179.318 1759.98 28.9239 1837.35 11.0199M1307.23 278.864C1211.61 311.178 1078.31 519.495 945.15 540.263" stroke="#D98044" stroke-opacity="0.5" stroke-width="2"/>
<path d="M937.541 525.94C1070.7 505.171 1204 296.855 1299.62 264.541C1407.33 228.141 1542.48 322.55 1654.09 243.772C1765.69 164.995 1752.37 14.6007 1829.74 -3.30334M1299.62 264.541C1204 296.855 1070.7 505.171 937.541 525.94" stroke="#D98044" stroke-opacity="0.5" stroke-width="2"/>
<path d="M931.2 513.049C1064.36 492.28 1197.66 283.964 1293.28 251.65C1400.99 215.25 1536.14 309.659 1647.75 230.881C1759.35 152.104 1746.03 1.70973 1823.39 -16.1943M1293.28 251.65C1197.66 283.964 1064.36 492.28 931.2 513.049" stroke="#D98044" stroke-opacity="0.5" stroke-width="2"/>
<path d="M924.859 500.158C1058.02 479.39 1191.32 271.073 1286.94 238.759C1394.64 202.359 1529.8 296.768 1641.4 217.991C1753.01 139.213 1739.69 -11.1811 1817.05 -29.0851M1286.94 238.759C1191.32 271.073 1058.02 479.39 924.859 500.158" stroke="#D98044" stroke-opacity="0.5" stroke-width="2"/>
<path d="M862.716 384.14C995.879 363.371 1129.18 155.055 1224.79 122.741C1332.5 86.3407 1467.66 180.75 1579.26 101.972C1690.87 23.1946 1677.55 -127.199 1754.91 -145.103M1224.79 122.741C1129.18 155.055 995.879 363.371 862.716 384.14" stroke="#D98044" stroke-opacity="0.5" stroke-width="2"/>
<path d="M855.106 369.817C988.27 349.048 1121.57 140.732 1217.18 108.418C1324.89 72.0174 1460.05 166.427 1571.65 87.6491C1683.26 8.87138 1669.94 -141.523 1747.3 -159.427M1217.18 108.418C1121.57 140.732 988.27 349.048 855.106 369.817" stroke="#D98044" stroke-opacity="0.5" stroke-width="2"/>
<path d="M848.765 356.926C981.929 336.157 1115.23 127.841 1210.84 95.527C1318.55 59.1266 1453.71 153.536 1565.31 74.7583C1676.91 -4.01949 1663.6 -154.413 1740.96 -172.317M1210.84 95.527C1115.23 127.841 981.929 336.157 848.765 356.926" stroke="#D98044" stroke-opacity="0.5" stroke-width="2"/>
<path d="M842.424 344.035C975.588 323.266 1108.89 114.95 1204.5 82.636C1312.21 46.2356 1447.37 140.645 1558.97 61.8673C1670.57 -16.9104 1657.26 -167.304 1734.62 -185.208M1204.5 82.636C1108.89 114.95 975.588 323.266 842.424 344.035" stroke="#D98044" stroke-opacity="0.5" stroke-width="2"/>
<path d="M834.815 331.144C967.978 310.375 1101.28 102.059 1196.89 69.7451C1304.6 33.3447 1439.76 127.754 1551.36 48.9764C1662.96 -29.8014 1649.65 -180.195 1727.01 -198.099M1196.89 69.7451C1101.28 102.059 967.978 310.375 834.815 331.144" stroke="#D98044" stroke-opacity="0.5" stroke-width="2"/>
<path d="M827.205 316.821C960.369 296.052 1093.67 87.7359 1189.28 55.4219C1296.99 19.0215 1432.15 113.431 1543.75 34.6532C1655.36 -44.1246 1642.04 -194.519 1719.4 -212.423M1189.28 55.4219C1093.67 87.7359 960.369 296.052 827.205 316.821" stroke="#D98044" stroke-opacity="0.5" stroke-width="2"/>
<path d="M820.864 303.93C954.028 283.161 1087.33 74.845 1182.94 42.5309C1290.65 6.13054 1425.81 100.54 1537.41 21.7622C1649.01 -57.0155 1635.7 -207.409 1713.06 -225.313M1182.94 42.5309C1087.33 74.845 954.028 283.161 820.864 303.93" stroke="#D98044" stroke-opacity="0.5" stroke-width="2"/>
<path d="M814.523 291.039C947.686 270.27 1080.98 61.9541 1176.6 29.6401C1284.31 -6.76033 1419.47 87.6491 1531.07 8.87137C1642.67 -69.9064 1629.36 -220.3 1706.72 -238.204M1176.6 29.6401C1080.98 61.9541 947.686 270.27 814.523 291.039" stroke="#D98044" stroke-opacity="0.5" stroke-width="2"/>
<path d="M1027.58 696.386C1160.75 675.618 1294.05 467.302 1389.66 434.987C1497.37 398.587 1632.53 492.997 1744.13 414.219C1855.73 335.441 1842.42 185.047 1919.78 167.143M1389.66 434.987C1294.05 467.302 1160.75 675.618 1027.58 696.386" stroke="#D98044" stroke-opacity="0.5" stroke-width="2"/>
<path d="M1019.98 682.063C1153.14 661.295 1286.44 452.978 1382.05 420.664C1489.76 384.264 1624.92 478.673 1736.52 399.896C1848.12 321.118 1834.81 170.724 1912.17 152.82M1382.05 420.664C1286.44 452.978 1153.14 661.295 1019.98 682.063" stroke="#D98044" stroke-opacity="0.5" stroke-width="2"/>
<path d="M1013.63 669.172C1146.8 648.404 1280.1 440.087 1375.71 407.773C1483.42 371.373 1618.58 465.782 1730.18 387.005C1841.78 308.227 1828.47 157.833 1905.83 139.929M1375.71 407.773C1280.1 440.087 1146.8 648.404 1013.63 669.172" stroke="#D98044" stroke-opacity="0.5" stroke-width="2"/>
<path d="M1007.29 656.281C1140.46 635.513 1273.75 427.196 1369.37 394.882C1477.08 358.482 1612.24 452.892 1723.84 374.114C1835.44 295.336 1822.13 144.942 1899.49 127.038M1369.37 394.882C1273.75 427.196 1140.46 635.513 1007.29 656.281" stroke="#D98044" stroke-opacity="0.5" stroke-width="2"/>
<path d="M999.684 643.391C1132.85 622.622 1266.14 414.306 1361.76 381.992C1469.47 345.591 1604.63 440.001 1716.23 361.223C1827.83 282.445 1814.52 132.051 1891.88 114.147M1361.76 381.992C1266.14 414.306 1132.85 622.622 999.684 643.391" stroke="#D98044" stroke-opacity="0.5" stroke-width="2"/>
<path d="M992.074 629.067C1125.24 608.299 1258.54 399.982 1354.15 367.668C1461.86 331.268 1597.02 425.677 1708.62 346.9C1820.22 268.122 1806.91 117.728 1884.27 99.8239M1354.15 367.668C1258.54 399.982 1125.24 608.299 992.074 629.067" stroke="#D98044" stroke-opacity="0.5" stroke-width="2"/>
<path d="M985.733 616.176C1118.9 595.408 1252.19 387.091 1347.81 354.777C1455.52 318.377 1590.68 412.786 1702.28 334.009C1813.88 255.231 1800.57 104.837 1877.93 86.933M1347.81 354.777C1252.19 387.091 1118.9 595.408 985.733 616.176" stroke="#D98044" stroke-opacity="0.5" stroke-width="2"/>
<path d="M979.392 603.286C1112.56 582.517 1245.85 374.201 1341.47 341.886C1449.18 305.486 1584.33 399.896 1695.94 321.118C1807.54 242.34 1794.23 91.9461 1871.59 74.0421M1341.47 341.886C1245.85 374.201 1112.56 582.517 979.392 603.286" stroke="#D98044" stroke-opacity="0.5" stroke-width="2"/>
</g>
</svg>
