<svg width="400" height="744" viewBox="0 0 819 744" fill="none" xmlns="http://www.w3.org/2000/svg">
<mask id="mask0_30_2" style="mask-type:alpha" maskUnits="userSpaceOnUse" x="0" y="0" width="819" height="744">
<rect width="819" height="744" fill="black"/>
</mask>
<g mask="url(#mask0_30_2)">
<path d="M-54.7047 139.313C-48.7983 174.668 411.449 110.165 440.512 141.694C441.866 143.163 443.214 144.625 444.552 146.08C464.631 167.906 482.598 188.101 488.52 205.775C505.178 255.492 466.63 319.317 501.317 370.412C536.004 421.507 599.68 413.772 608.148 449.566M-48.7115 135.628C-42.8051 170.982 417.442 106.48 446.505 138.008C447.859 139.477 449.207 140.939 450.546 142.394C470.624 164.22 488.591 184.415 494.513 202.089C511.172 251.807 472.623 315.631 507.31 366.726C541.997 417.821 605.673 410.086 614.141 445.88M-43.312 132.546C-37.4056 167.901 422.842 103.398 451.904 134.927C453.259 136.396 454.607 137.858 455.945 139.313C476.023 161.139 493.991 181.334 499.913 199.008C516.571 248.726 478.023 312.55 512.71 363.645C547.396 414.74 611.073 407.005 619.541 442.799M-37.912 129.465C-32.0056 164.82 428.241 100.317 457.304 131.846C458.658 133.315 460.006 134.777 461.345 136.232C481.423 158.058 499.39 178.253 505.312 195.927C521.971 245.644 483.422 309.469 518.109 360.564C552.796 411.658 616.473 403.923 624.94 439.718M-32.5267 125.794C-26.6203 161.149 433.627 96.6462 462.689 128.174C464.044 129.644 465.392 131.106 466.73 132.561C486.808 154.387 504.776 174.582 510.698 192.256C527.356 241.973 488.808 305.798 523.495 356.893C558.181 407.987 621.858 400.252 630.326 436.047M-26.5335 122.109C-20.6271 157.463 439.62 92.9606 468.682 124.489C470.037 125.958 471.385 127.42 472.723 128.875C492.802 150.701 510.769 170.896 516.691 188.57C533.349 238.288 494.801 302.112 529.488 353.207C564.175 404.302 627.851 396.567 636.319 432.361M-21.1339 119.027C-15.2275 154.382 445.019 89.8794 474.082 121.408C475.436 122.877 476.784 124.339 478.123 125.794C498.201 147.62 516.168 167.815 522.09 185.489C538.749 235.206 500.201 299.031 534.887 350.126C569.574 401.221 633.251 393.486 641.718 429.28M-15.7344 115.946C-9.82796 151.301 450.419 86.7982 479.482 118.326C480.836 119.796 482.184 121.258 483.522 122.713C503.601 144.539 521.568 164.733 527.49 182.408C544.148 232.125 505.6 295.95 540.287 347.045C574.974 398.139 638.65 390.404 647.118 426.199M-98.4521 166.337C-92.5457 201.692 367.702 137.189 396.764 168.717C398.119 170.186 399.467 171.649 400.805 173.104C420.883 194.929 438.851 215.124 444.773 232.798C461.431 282.516 422.883 346.34 457.57 397.435C492.256 448.53 555.933 440.795 564.4 476.589M-92.4589 162.651C-86.5525 198.006 373.695 133.503 402.757 165.031C404.112 166.501 405.46 167.963 406.798 169.418C426.877 191.244 444.844 211.438 450.766 229.112C467.424 278.83 428.876 342.655 463.563 393.749C498.25 444.844 561.926 437.109 570.394 472.904M-87.0593 159.57C-81.1529 194.925 379.094 130.422 408.157 161.95C409.511 163.419 410.859 164.882 412.198 166.337C432.276 188.162 450.243 208.357 456.165 226.031C472.824 275.749 434.276 339.573 468.962 390.668C503.649 441.763 567.326 434.028 575.793 469.822M-81.6598 156.489C-75.7534 191.844 384.494 127.341 413.557 158.869C414.911 160.338 416.259 161.801 417.597 163.256C437.676 185.081 455.643 205.276 461.565 222.95C478.223 272.668 439.675 336.492 474.362 387.587C509.049 438.682 572.725 430.947 581.193 466.741M-76.2745 152.818C-70.3681 188.172 389.879 123.67 418.942 155.198C420.296 156.667 421.644 158.13 422.983 159.585C443.061 181.41 461.028 201.605 466.95 219.279C483.609 268.997 445.06 332.821 479.747 383.916C514.434 435.011 578.111 427.276 586.578 463.07M-70.2813 149.132C-64.3749 184.487 395.872 119.984 424.935 151.512C426.289 152.982 427.637 154.444 428.976 155.899C449.054 177.724 467.022 197.919 472.943 215.593C489.602 265.311 451.054 329.135 485.74 380.23C520.427 431.325 584.104 423.59 592.571 459.385M-64.8817 146.051C-58.9753 181.406 401.272 116.903 430.335 148.431C431.689 149.9 433.037 151.363 434.375 152.818C454.454 174.643 472.421 194.838 478.343 212.512C495.001 262.23 456.453 326.054 491.14 377.149C525.827 428.244 589.503 420.509 597.971 456.303M-59.4822 142.97C-53.5758 178.324 406.672 113.822 435.734 145.35C437.089 146.819 438.436 148.281 439.775 149.736C459.853 171.562 477.821 191.757 483.743 209.431C500.401 259.149 461.853 322.973 496.54 374.068C531.226 425.163 594.903 417.428 603.37 453.222M-10.9426 112.88C-5.03625 148.234 455.211 83.7317 484.273 115.26C485.628 116.729 486.976 118.191 488.314 119.647C508.392 141.472 526.36 161.667 532.282 179.341C548.94 229.059 510.392 292.883 545.079 343.978C579.765 395.073 643.442 387.338 651.91 423.132M-4.94947 109.194C0.956921 144.549 461.204 80.046 490.266 111.574C491.621 113.044 492.969 114.506 494.307 115.961C514.386 137.786 532.353 157.981 538.275 175.655C554.933 225.373 516.385 289.197 551.072 340.292C585.759 391.387 649.435 383.652 657.903 419.447M0.450092 106.113C6.35649 141.468 466.603 76.9648 495.666 108.493C497.02 109.962 498.368 111.425 499.707 112.88C519.785 134.705 537.752 154.9 543.674 172.574C560.333 222.292 521.785 286.116 556.471 337.211C591.158 388.306 654.835 380.571 663.302 416.365M5.84966 103.032C11.7561 138.386 472.003 73.8836 501.066 105.412C502.42 106.881 503.768 108.343 505.106 109.798C525.185 131.624 543.152 151.819 549.074 169.493C565.732 219.211 527.184 283.035 561.871 334.13C596.558 385.225 660.234 377.49 668.702 413.284M11.235 99.3606C17.1414 134.715 477.388 70.2126 506.451 101.741C507.805 103.21 509.153 104.672 510.492 106.127C530.57 127.953 548.537 148.148 554.459 165.822C571.118 215.54 532.569 279.364 567.256 330.459C601.943 381.554 665.62 373.819 674.087 409.613M17.2282 95.6749C23.1346 131.03 483.381 66.5269 512.444 98.0552C513.798 99.5244 515.146 100.987 516.485 102.442C536.563 124.267 554.531 144.462 560.452 162.136C577.111 211.854 538.563 275.678 573.249 326.773C607.936 377.868 671.613 370.133 680.08 405.928M22.6278 92.5937C28.5342 127.949 488.781 63.4457 517.844 94.974C519.198 96.4432 520.546 97.9055 521.884 99.3606C541.963 121.186 559.93 141.381 565.852 159.055C582.51 208.773 543.962 272.597 578.649 323.692C613.336 374.787 677.012 367.052 685.48 402.846M28.0273 89.5125C33.9337 124.867 494.181 60.3645 523.243 91.8928C524.598 93.3621 525.945 94.8244 527.284 96.2794C547.362 118.105 565.33 138.3 571.252 155.974C587.91 205.692 549.362 269.516 584.049 320.611C618.735 371.706 682.412 363.971 690.88 399.765M-141.606 192.756C-135.7 228.111 324.548 163.608 353.61 195.136C354.965 196.605 356.313 198.068 357.651 199.523C377.73 221.348 395.697 241.543 401.619 259.217C418.277 308.935 379.729 372.759 414.416 423.854C449.103 474.949 512.779 467.214 521.247 503.008M-135.613 189.07C-129.706 224.425 330.541 159.922 359.604 191.45C360.958 192.92 362.306 194.382 363.644 195.837C383.723 217.663 401.69 237.857 407.612 255.531C424.27 305.249 385.722 369.073 420.409 420.168C455.096 471.263 518.772 463.528 527.24 499.323M-130.213 185.989C-124.307 221.344 335.941 156.841 365.003 188.369C366.358 189.838 367.705 191.301 369.044 192.756C389.122 214.581 407.09 234.776 413.012 252.45C429.67 302.168 391.122 365.992 425.808 417.087C460.495 468.182 524.172 460.447 532.639 496.241M-124.814 182.908C-118.907 218.262 341.34 153.76 370.403 185.288C371.757 186.757 373.105 188.219 374.444 189.675C394.522 211.5 412.489 231.695 418.411 249.369C435.069 299.087 396.521 362.911 431.208 414.006C465.895 465.101 529.571 457.366 538.039 493.16M-119.428 179.237C-113.522 214.591 346.725 150.089 375.788 181.617C377.142 183.086 378.49 184.549 379.829 186.004C399.907 207.829 417.875 228.024 423.796 245.698C440.455 295.416 401.907 359.24 436.593 410.335C471.28 461.43 534.957 453.695 543.424 489.489M-113.435 175.551C-107.529 210.906 352.719 146.403 381.781 177.931C383.136 179.401 384.484 180.863 385.822 182.318C405.9 204.143 423.868 224.338 429.79 242.012C446.448 291.73 407.9 355.554 442.587 406.649C477.273 457.744 540.95 450.009 549.417 485.804M-108.036 172.47C-102.129 207.825 358.118 143.322 387.181 174.85C388.535 176.319 389.883 177.782 391.222 179.237C411.3 201.062 429.267 221.257 435.189 238.931C451.848 288.649 413.299 352.473 447.986 403.568C482.673 454.663 546.349 446.928 554.817 482.722M-102.636 169.389C-96.7295 204.743 363.518 140.241 392.58 171.769C393.935 173.238 395.283 174.7 396.621 176.155C416.7 197.981 434.667 218.176 440.589 235.85C457.247 285.568 418.699 349.392 453.386 400.487C488.073 451.582 551.749 443.847 560.217 479.641M608.2 449.362C614.106 484.717 646.133 519.461 675.196 550.989C676.55 552.459 677.898 553.921 679.237 555.376C699.315 577.202 717.282 597.396 723.204 615.07C739.862 664.788 52.071 646.787 86.7578 697.882C121.445 748.977 143.622 814.263 152.089 850.058M614.193 445.676C620.099 481.031 652.126 515.775 681.189 547.304C682.543 548.773 683.891 550.235 685.23 551.69C705.308 573.516 723.275 593.711 729.197 611.385C745.856 661.103 58.0642 643.101 92.751 694.196C127.438 745.291 149.615 810.577 158.083 846.372M619.592 442.595C625.499 477.95 657.526 512.694 686.589 544.223C687.943 545.692 689.291 547.154 690.629 548.609C710.708 570.435 728.675 590.629 734.597 608.304C751.255 658.021 63.4638 640.02 98.1506 691.115C132.837 742.21 155.014 807.496 163.482 843.291M624.992 439.514C630.898 474.869 662.926 509.613 691.988 541.141C693.342 542.611 694.69 544.073 696.029 545.528C716.107 567.353 734.075 587.548 739.996 605.222C756.655 654.94 68.8633 636.939 103.55 688.034C138.237 739.129 160.414 804.415 168.882 840.21M630.377 435.843C636.284 471.198 668.311 505.942 697.373 537.47C698.728 538.94 700.076 540.402 701.414 541.857C721.493 563.683 739.46 583.877 745.382 601.551C762.04 651.269 74.2487 633.268 108.935 684.363C143.622 735.458 165.799 800.744 174.267 836.539M636.37 432.157C642.277 467.512 674.304 502.256 703.367 533.785C704.721 535.254 706.069 536.716 707.407 538.171C727.486 559.997 745.453 580.192 751.375 597.866C768.033 647.583 80.2418 629.582 114.929 680.677C149.615 731.772 171.793 797.059 180.26 832.853M641.77 429.076C647.676 464.431 679.704 499.175 708.766 530.703C710.121 532.173 711.468 533.635 712.807 535.09C732.885 556.916 750.853 577.111 756.775 594.785C773.433 644.502 85.6414 626.501 120.328 677.596C155.015 728.691 177.192 793.977 185.66 829.772M647.17 425.995C653.076 461.35 685.103 496.094 714.166 527.622C715.52 529.091 716.868 530.554 718.207 532.009C738.285 553.834 756.252 574.029 762.174 591.703C778.832 641.421 91.041 623.42 125.728 674.515C160.415 725.61 182.592 790.896 191.059 826.691M564.452 476.386C570.359 511.74 602.386 546.485 631.448 578.013C632.803 579.482 634.151 580.944 635.489 582.4C655.567 604.225 673.535 624.42 679.457 642.094C696.115 691.812 8.3236 673.811 43.0104 724.905C77.6972 776 99.8743 841.287 108.342 877.081M570.445 472.7C576.352 508.055 608.379 542.799 637.442 574.327C638.796 575.796 640.144 577.259 641.482 578.714C661.561 600.539 679.528 620.734 685.45 638.408C702.108 688.126 14.3168 670.125 49.0036 721.22C83.6904 772.315 105.867 837.601 114.335 873.395M575.845 469.619C581.751 504.973 613.778 539.718 642.841 571.246C644.195 572.715 645.543 574.177 646.882 575.633C666.96 597.458 684.928 617.653 690.849 635.327C707.508 685.045 19.7163 667.044 54.4031 718.139C89.0899 769.233 111.267 834.52 119.735 870.314M581.245 466.538C587.151 501.892 619.178 536.636 648.241 568.165C649.595 569.634 650.943 571.096 652.282 572.551C672.36 594.377 690.327 614.572 696.249 632.246C712.907 681.964 25.116 663.963 59.8028 715.057C94.4895 766.152 116.667 831.439 125.134 867.233M586.63 462.866C592.536 498.221 624.563 532.965 653.626 564.494C654.98 565.963 656.328 567.425 657.667 568.88C677.745 590.706 695.713 610.901 701.634 628.575C718.293 678.293 30.5013 660.291 65.1881 711.386C99.8749 762.481 122.052 827.768 130.52 863.562M592.623 459.181C598.529 494.536 630.557 529.28 659.619 560.808C660.974 562.277 662.321 563.74 663.66 565.195C683.738 587.02 701.706 607.215 707.628 624.889C724.286 674.607 36.4945 656.606 71.1812 707.701C105.868 758.796 128.045 824.082 136.513 859.876M598.023 456.1C603.929 491.454 635.956 526.199 665.019 557.727C666.373 559.196 667.721 560.658 669.06 562.113C689.138 583.939 707.105 604.134 713.027 621.808C729.685 671.526 41.894 653.525 76.5808 704.619C111.268 755.714 133.445 821.001 141.912 856.795M603.422 453.018C609.329 488.373 641.356 523.117 670.418 554.646C671.773 556.115 673.121 557.577 674.459 559.032C694.537 580.858 712.505 601.053 718.427 618.727C735.085 668.444 47.2935 650.443 81.9803 701.538C116.667 752.633 138.844 817.919 147.312 853.714M651.961 422.928C657.868 458.283 689.895 493.028 718.957 524.556C720.312 526.025 721.66 527.487 722.998 528.942C743.077 550.768 761.044 570.963 766.966 588.637C783.624 638.355 95.8327 620.353 130.52 671.448C165.206 722.543 187.383 787.83 195.851 823.624M657.955 419.243C663.861 454.598 695.888 489.342 724.951 520.87C726.305 522.339 727.653 523.802 728.992 525.257C749.07 547.082 767.037 567.277 772.959 584.951C789.617 634.669 101.826 616.668 136.513 667.763C171.199 718.858 193.377 784.144 201.844 819.938M663.354 416.162C669.261 451.516 701.288 486.261 730.35 517.789C731.705 519.258 733.053 520.72 734.391 522.175C754.469 544.001 772.437 564.196 778.359 581.87C795.017 631.588 107.225 613.587 141.912 664.681C176.599 715.776 198.776 781.063 207.244 816.857M668.754 413.08C674.66 448.435 706.687 483.179 735.75 514.708C737.104 516.177 738.452 517.639 739.791 519.094C759.869 540.92 777.836 561.115 783.758 578.789C800.416 628.507 112.625 610.505 147.312 661.6C181.999 712.695 204.176 777.982 212.643 813.776M674.139 409.409C680.045 444.764 712.072 479.508 741.135 511.037C742.489 512.506 743.837 513.968 745.176 515.423C765.254 537.249 783.222 557.444 789.143 575.118C805.802 624.836 118.01 606.834 152.697 657.929C187.384 709.024 209.561 774.311 218.029 810.105M680.132 405.724C686.039 441.079 718.066 475.823 747.128 507.351C748.483 508.82 749.831 510.283 751.169 511.738C771.247 533.563 789.215 553.758 795.137 571.432C811.795 621.15 124.004 603.149 158.69 654.244C193.377 705.338 215.554 770.625 224.022 806.419M685.532 402.643C691.438 437.997 723.465 472.742 752.528 504.27C753.882 505.739 755.23 507.201 756.569 508.656C776.647 530.482 794.614 550.677 800.536 568.351C817.195 618.069 129.403 600.068 164.09 651.162C198.777 702.257 220.954 767.544 229.421 803.338M690.931 399.561C696.838 434.916 728.865 469.66 757.927 501.189C759.282 502.658 760.63 504.12 761.968 505.575C782.047 527.401 800.014 547.596 805.936 565.27C822.594 614.987 134.803 596.986 169.489 648.081C204.176 699.176 226.353 764.462 234.821 800.257M521.298 502.804C527.205 538.159 559.232 572.903 588.295 604.432C589.649 605.901 590.997 607.363 592.335 608.818C612.414 630.644 630.381 650.839 636.303 668.513C652.961 718.231 -34.8302 700.23 -0.143371 751.324C34.5434 802.419 56.7205 867.706 65.1881 903.5M527.292 499.119C533.198 534.474 565.225 569.218 594.288 600.746C595.642 602.215 596.99 603.678 598.329 605.133C618.407 626.958 636.374 647.153 642.296 664.827C658.954 714.545 -28.837 696.544 5.8498 747.639C40.5366 798.734 62.7137 864.02 71.1813 899.814M532.691 496.038C538.598 531.392 570.625 566.137 599.687 597.665C601.042 599.134 602.39 600.596 603.728 602.051C623.806 623.877 641.774 644.072 647.696 661.746C664.354 711.464 -23.4374 693.463 11.2494 744.558C45.9362 795.652 68.1132 860.939 76.5808 896.733M538.091 492.956C543.997 528.311 576.024 563.056 605.087 594.584C606.441 596.053 607.789 597.515 609.128 598.97C629.206 620.796 647.173 640.991 653.095 658.665C669.754 708.383 -18.0379 690.382 16.6489 741.476C51.3357 792.571 73.5128 857.858 81.9804 893.652M543.476 489.285C549.382 524.64 581.41 559.385 610.472 590.913C611.827 592.382 613.175 593.844 614.513 595.299C634.591 617.125 652.559 637.32 658.481 654.994C675.139 704.711 -12.6526 686.71 22.0342 737.805C56.721 788.9 78.8981 854.187 87.3658 889.981M549.469 485.6C555.376 520.955 587.403 555.699 616.465 587.227C617.82 588.696 619.168 590.159 620.506 591.614C640.585 613.439 658.552 633.634 664.474 651.308C681.132 701.026 -6.65938 683.025 28.0274 734.12C62.7142 785.215 84.8913 850.501 93.3589 886.295M554.869 482.519C560.775 517.873 592.802 552.618 621.865 584.146C623.219 585.615 624.567 587.078 625.906 588.533C645.984 610.358 663.951 630.553 669.873 648.227C686.532 697.945 -1.25982 679.944 33.427 731.038C68.1138 782.133 90.2909 847.42 98.7585 883.214M560.268 479.437C566.175 514.792 598.202 549.536 627.265 581.065C628.619 582.534 629.967 583.996 631.305 585.451C651.384 607.277 669.351 627.472 675.273 645.146C691.931 694.863 4.13981 676.862 38.8266 727.957C73.5134 779.052 95.6904 844.339 104.158 880.133" stroke="#FF7A22" stroke-opacity="0.5" stroke-width="2"/>
</g>
</svg>
